<?xml version="1.0" encoding="UTF-8" standalone="no"?>
<!DOCTYPE svg PUBLIC "-//W3C//DTD SVG 1.1//EN"
 "http://www.w3.org/Graphics/SVG/1.1/DTD/svg11.dtd">
<!-- Generated by graphviz version 14.1.1 (20251213.1925)
 -->
<!-- Title: InheritanceTree Pages: 1 -->
<svg width="490pt" height="429pt"
 viewBox="0.00 0.00 490.00 429.00" xmlns="http://www.w3.org/2000/svg" xmlns:xlink="http://www.w3.org/1999/xlink">
<g id="graph0" class="graph" transform="scale(1 1) rotate(0) translate(4 424.5)">
<title>InheritanceTree</title>
<polygon fill="white" stroke="none" points="-4,4 -4,-424.5 486,-424.5 486,4 -4,4"/>
<text xml:space="preserve" text-anchor="middle" x="241" y="-7.2" font-family="Times New Roman,serif" font-size="14.00">simple_toon &#45; Inheritance Hierarchy</text>
<!-- SIMPLE_TOON_CONSTANTS -->
<g id="node1" class="node">
<title>SIMPLE_TOON_CONSTANTS</title>
<path fill="none" stroke="black" d="M470,-186.5C470,-186.5 299.5,-186.5 299.5,-186.5 293.5,-186.5 287.5,-180.5 287.5,-174.5 287.5,-174.5 287.5,-162.5 287.5,-162.5 287.5,-156.5 293.5,-150.5 299.5,-150.5 299.5,-150.5 470,-150.5 470,-150.5 476,-150.5 482,-156.5 482,-162.5 482,-162.5 482,-174.5 482,-174.5 482,-180.5 476,-186.5 470,-186.5"/>
<text xml:space="preserve" text-anchor="middle" x="384.75" y="-163.45" font-family="Times New Roman,serif" font-size="14.00">SIMPLE_TOON_CONSTANTS</text>
</g>
<!-- SIMPLE_TOON_ERROR -->
<g id="node2" class="node">
<title>SIMPLE_TOON_ERROR</title>
<path fill="none" stroke="black" d="M158.12,-132.5C158.12,-132.5 21.38,-132.5 21.38,-132.5 15.38,-132.5 9.38,-126.5 9.38,-120.5 9.38,-120.5 9.38,-108.5 9.38,-108.5 9.38,-102.5 15.38,-96.5 21.38,-96.5 21.38,-96.5 158.12,-96.5 158.12,-96.5 164.12,-96.5 170.12,-102.5 170.12,-108.5 170.12,-108.5 170.12,-120.5 170.12,-120.5 170.12,-126.5 164.12,-132.5 158.12,-132.5"/>
<text xml:space="preserve" text-anchor="middle" x="89.75" y="-109.45" font-family="Times New Roman,serif" font-size="14.00">SIMPLE_TOON_ERROR</text>
</g>
<!-- SIMPLE_TOON_ERROR&#45;&gt;SIMPLE_TOON_CONSTANTS -->
<g id="edge1" class="edge">
<title>SIMPLE_TOON_ERROR&#45;&gt;SIMPLE_TOON_CONSTANTS</title>
<path fill="none" stroke="black" d="M170.57,-114.5C233.77,-114.5 311,-114.5 311,-114.5 311,-114.5 311,-138.7 311,-138.7"/>
<polygon fill="none" stroke="black" points="307.5,-138.7 311,-148.7 314.5,-138.7 307.5,-138.7"/>
</g>
<!-- NONE -->
<g id="node3" class="node">
<title>NONE</title>
<path fill="none" stroke="black" d="M399.75,-78.5C399.75,-78.5 369.75,-78.5 369.75,-78.5 363.75,-78.5 357.75,-72.5 357.75,-66.5 357.75,-66.5 357.75,-54.5 357.75,-54.5 357.75,-48.5 363.75,-42.5 369.75,-42.5 369.75,-42.5 399.75,-42.5 399.75,-42.5 405.75,-42.5 411.75,-48.5 411.75,-54.5 411.75,-54.5 411.75,-66.5 411.75,-66.5 411.75,-72.5 405.75,-78.5 399.75,-78.5"/>
<text xml:space="preserve" text-anchor="middle" x="384.75" y="-55.45" font-family="Times New Roman,serif" font-size="14.00">NONE</text>
</g>
<!-- SIMPLE_TOON_ERROR&#45;&gt;NONE -->
<g id="edge2" class="edge">
<title>SIMPLE_TOON_ERROR&#45;&gt;NONE</title>
<path fill="none" stroke="black" d="M160,-96.2C160,-83.74 160,-69.5 160,-69.5 160,-69.5 346.13,-69.5 346.13,-69.5"/>
<polygon fill="none" stroke="black" points="346.13,-73 356.13,-69.5 346.13,-66 346.13,-73"/>
</g>
<!-- TOON_BUILDER -->
<g id="node4" class="node">
<title>TOON_BUILDER</title>
<path fill="none" stroke="black" d="M137.12,-60.5C137.12,-60.5 42.38,-60.5 42.38,-60.5 36.38,-60.5 30.38,-54.5 30.38,-48.5 30.38,-48.5 30.38,-36.5 30.38,-36.5 30.38,-30.5 36.38,-24.5 42.38,-24.5 42.38,-24.5 137.12,-24.5 137.12,-24.5 143.12,-24.5 149.12,-30.5 149.12,-36.5 149.12,-36.5 149.12,-48.5 149.12,-48.5 149.12,-54.5 143.12,-60.5 137.12,-60.5"/>
<text xml:space="preserve" text-anchor="middle" x="89.75" y="-37.45" font-family="Times New Roman,serif" font-size="14.00">TOON_BUILDER</text>
</g>
<!-- TOON_BUILDER&#45;&gt;SIMPLE_TOON_CONSTANTS -->
<g id="edge3" class="edge">
<title>TOON_BUILDER&#45;&gt;SIMPLE_TOON_CONSTANTS</title>
<path fill="none" stroke="black" d="M149.5,-54.5C221.81,-54.5 334,-54.5 334,-54.5 334,-54.5 334,-138.67 334,-138.67"/>
<polygon fill="none" stroke="black" points="330.5,-138.67 334,-148.67 337.5,-138.67 330.5,-138.67"/>
</g>
<!-- TOON_BUILDER&#45;&gt;NONE -->
<g id="edge4" class="edge">
<title>TOON_BUILDER&#45;&gt;NONE</title>
<path fill="none" stroke="black" d="M149.45,-48.5C149.45,-48.5 346.02,-48.5 346.02,-48.5"/>
<polygon fill="none" stroke="black" points="346.02,-52 356.02,-48.5 346.02,-45 346.02,-52"/>
</g>
<!-- SIMPLE_TOON_DECODER -->
<g id="node5" class="node">
<title>SIMPLE_TOON_DECODER</title>
<path fill="none" stroke="black" d="M167.5,-276.5C167.5,-276.5 12,-276.5 12,-276.5 6,-276.5 0,-270.5 0,-264.5 0,-264.5 0,-252.5 0,-252.5 0,-246.5 6,-240.5 12,-240.5 12,-240.5 167.5,-240.5 167.5,-240.5 173.5,-240.5 179.5,-246.5 179.5,-252.5 179.5,-252.5 179.5,-264.5 179.5,-264.5 179.5,-270.5 173.5,-276.5 167.5,-276.5"/>
<text xml:space="preserve" text-anchor="middle" x="89.75" y="-253.45" font-family="Times New Roman,serif" font-size="14.00">SIMPLE_TOON_DECODER</text>
</g>
<!-- SIMPLE_TOON_DECODER&#45;&gt;SIMPLE_TOON_CONSTANTS -->
<g id="edge5" class="edge">
<title>SIMPLE_TOON_DECODER&#45;&gt;SIMPLE_TOON_CONSTANTS</title>
<path fill="none" stroke="black" d="M179.89,-258.5C239.23,-258.5 306,-258.5 306,-258.5 306,-258.5 306,-198.23 306,-198.23"/>
<polygon fill="none" stroke="black" points="309.5,-198.23 306,-188.23 302.5,-198.23 309.5,-198.23"/>
</g>
<!-- SIMPLE_TOON_ENCODER -->
<g id="node6" class="node">
<title>SIMPLE_TOON_ENCODER</title>
<path fill="none" stroke="black" d="M167.5,-204.5C167.5,-204.5 12,-204.5 12,-204.5 6,-204.5 0,-198.5 0,-192.5 0,-192.5 0,-180.5 0,-180.5 0,-174.5 6,-168.5 12,-168.5 12,-168.5 167.5,-168.5 167.5,-168.5 173.5,-168.5 179.5,-174.5 179.5,-180.5 179.5,-180.5 179.5,-192.5 179.5,-192.5 179.5,-198.5 173.5,-204.5 167.5,-204.5"/>
<text xml:space="preserve" text-anchor="middle" x="89.75" y="-181.45" font-family="Times New Roman,serif" font-size="14.00">SIMPLE_TOON_ENCODER</text>
</g>
<!-- SIMPLE_TOON_ENCODER&#45;&gt;SIMPLE_TOON_CONSTANTS -->
<g id="edge6" class="edge">
<title>SIMPLE_TOON_ENCODER&#45;&gt;SIMPLE_TOON_CONSTANTS</title>
<path fill="none" stroke="black" d="M179.86,-177.5C179.86,-177.5 275.73,-177.5 275.73,-177.5"/>
<polygon fill="none" stroke="black" points="275.73,-181 285.73,-177.5 275.73,-174 275.73,-181"/>
</g>
<!-- LIB_TESTS -->
<g id="node7" class="node">
<title>LIB_TESTS</title>
<path fill="none" stroke="black" d="M119.88,-348.5C119.88,-348.5 59.62,-348.5 59.62,-348.5 53.62,-348.5 47.62,-342.5 47.62,-336.5 47.62,-336.5 47.62,-324.5 47.62,-324.5 47.62,-318.5 53.62,-312.5 59.62,-312.5 59.62,-312.5 119.88,-312.5 119.88,-312.5 125.88,-312.5 131.88,-318.5 131.88,-324.5 131.88,-324.5 131.88,-336.5 131.88,-336.5 131.88,-342.5 125.88,-348.5 119.88,-348.5"/>
<text xml:space="preserve" text-anchor="middle" x="89.75" y="-325.45" font-family="Times New Roman,serif" font-size="14.00">LIB_TESTS</text>
</g>
<!-- TEST_SET_BASE -->
<g id="node8" class="node">
<title>TEST_SET_BASE</title>
<path fill="none" stroke="black" d="M432.88,-348.5C432.88,-348.5 336.62,-348.5 336.62,-348.5 330.62,-348.5 324.62,-342.5 324.62,-336.5 324.62,-336.5 324.62,-324.5 324.62,-324.5 324.62,-318.5 330.62,-312.5 336.62,-312.5 336.62,-312.5 432.88,-312.5 432.88,-312.5 438.88,-312.5 444.88,-318.5 444.88,-324.5 444.88,-324.5 444.88,-336.5 444.88,-336.5 444.88,-342.5 438.88,-348.5 432.88,-348.5"/>
<text xml:space="preserve" text-anchor="middle" x="384.75" y="-325.45" font-family="Times New Roman,serif" font-size="14.00">TEST_SET_BASE</text>
</g>
<!-- LIB_TESTS&#45;&gt;TEST_SET_BASE -->
<g id="edge7" class="edge">
<title>LIB_TESTS&#45;&gt;TEST_SET_BASE</title>
<path fill="none" stroke="black" d="M132.33,-330.5C132.33,-330.5 312.75,-330.5 312.75,-330.5"/>
<polygon fill="none" stroke="black" points="312.75,-334 322.75,-330.5 312.75,-327 312.75,-334"/>
</g>
<!-- TEST_APP -->
<g id="node9" class="node">
<title>TEST_APP</title>
<path fill="none" stroke="black" d="M117.62,-420.5C117.62,-420.5 61.88,-420.5 61.88,-420.5 55.88,-420.5 49.88,-414.5 49.88,-408.5 49.88,-408.5 49.88,-396.5 49.88,-396.5 49.88,-390.5 55.88,-384.5 61.88,-384.5 61.88,-384.5 117.62,-384.5 117.62,-384.5 123.62,-384.5 129.62,-390.5 129.62,-396.5 129.62,-396.5 129.62,-408.5 129.62,-408.5 129.62,-414.5 123.62,-420.5 117.62,-420.5"/>
<text xml:space="preserve" text-anchor="middle" x="89.75" y="-397.45" font-family="Times New Roman,serif" font-size="14.00">TEST_APP</text>
</g>
</g>
</svg>
