<?xml version="1.0" encoding="UTF-8" standalone="no"?>
<!DOCTYPE svg PUBLIC "-//W3C//DTD SVG 1.1//EN"
 "http://www.w3.org/Graphics/SVG/1.1/DTD/svg11.dtd">
<!-- Generated by graphviz version 14.1.1 (20251213.1925)
 -->
<!-- Title: ContractCoverage Pages: 1 -->
<svg width="816pt" height="764pt"
 viewBox="48.00 48.00 768.00 716.00" xmlns="http://www.w3.org/2000/svg" xmlns:xlink="http://www.w3.org/1999/xlink">
<g id="graph0" class="graph" transform="scale(0.572337 0.572337) rotate(0) translate(87.87 1247.62)">
<title>ContractCoverage</title>
<polygon fill="white" stroke="none" points="-4,4 -4,-1163.75 1254,-1163.75 1254,4 -4,4"/>
<text xml:space="preserve" text-anchor="middle" x="625" y="-1146.25" font-family="Times New Roman,serif" font-size="10.00">simple_toon &#45; Contract Coverage</text>
<g id="clust1" class="cluster">
<title>cluster_SIMPLE_TOON_CONSTANTS</title>
<polygon fill="white" stroke="black" points="777.5,-666 777.5,-1140.5 1249.5,-1140.5 1249.5,-666 777.5,-666"/>
<text xml:space="preserve" text-anchor="middle" x="1013.5" y="-1123.2" font-family="Times New Roman,serif" font-size="14.00">SIMPLE_TOON_CONSTANTS</text>
</g>
<g id="clust2" class="cluster">
<title>cluster_SIMPLE_TOON_ERROR</title>
<polygon fill="white" stroke="black" points="444,0 444,-60.5 589,-60.5 589,0 444,0"/>
<text xml:space="preserve" text-anchor="middle" x="516.5" y="-43.2" font-family="Times New Roman,serif" font-size="14.00">SIMPLE_TOON_ERROR</text>
</g>
<g id="clust3" class="cluster">
<title>cluster_TOON_BUILDER</title>
<polygon fill="white" stroke="black" points="0,0 0,-60.5 103,-60.5 103,0 0,0"/>
<text xml:space="preserve" text-anchor="middle" x="51.5" y="-43.2" font-family="Times New Roman,serif" font-size="14.00">TOON_BUILDER</text>
</g>
<g id="clust4" class="cluster">
<title>cluster_SIMPLE_TOON_DECODER</title>
<polygon fill="white" stroke="black" points="148.5,-148 148.5,-736.5 706.5,-736.5 706.5,-148 148.5,-148"/>
<text xml:space="preserve" text-anchor="middle" x="427.5" y="-719.2" font-family="Times New Roman,serif" font-size="14.00">SIMPLE_TOON_DECODER</text>
</g>
<g id="clust5" class="cluster">
<title>cluster_SIMPLE_TOON_ENCODER</title>
<polygon fill="white" stroke="black" points="777,-111 777,-591.5 1250,-591.5 1250,-111 777,-111"/>
<text xml:space="preserve" text-anchor="middle" x="1013.5" y="-574.2" font-family="Times New Roman,serif" font-size="14.00">SIMPLE_TOON_ENCODER</text>
</g>
<g id="clust6" class="cluster">
<title>cluster_LIB_TESTS</title>
<polygon fill="white" stroke="black" points="0,-888.5 0,-1004 119,-1004 119,-888.5 0,-888.5"/>
<text xml:space="preserve" text-anchor="middle" x="59.5" y="-986.7" font-family="Times New Roman,serif" font-size="14.00">LIB_TESTS</text>
</g>
<g id="clust7" class="cluster">
<title>cluster_TEST_APP</title>
<polygon fill="white" stroke="black" points="481,-814.5 481,-1040 700,-1040 700,-814.5 481,-814.5"/>
<text xml:space="preserve" text-anchor="middle" x="590.5" y="-1022.7" font-family="Times New Roman,serif" font-size="14.00">TEST_APP</text>
</g>
<g id="clust8" class="cluster">
<title>cluster_legend</title>
<polygon fill="lightyellow" stroke="black" points="185.12,-814.13 185.12,-1010.38 405.87,-1010.38 405.87,-814.13 185.12,-814.13"/>
<text xml:space="preserve" text-anchor="middle" x="295.5" y="-996.88" font-family="Times New Roman,serif" font-size="10.00">Legend</text>
</g>
<!-- SIMPLE_TOON_CONSTANTS_Default_indent -->
<g id="node1" class="node">
<title>SIMPLE_TOON_CONSTANTS_Default_indent</title>
<polygon fill="lightgray" stroke="black" points="1053.62,-1056 975.37,-1056 975.37,-1020 1053.62,-1020 1053.62,-1056"/>
<text xml:space="preserve" text-anchor="middle" x="1014.5" y="-1034.12" font-family="Times New Roman,serif" font-size="10.00">Default_indent</text>
</g>
<!-- SIMPLE_TOON_CONSTANTS_Default_delimiter -->
<g id="node2" class="node">
<title>SIMPLE_TOON_CONSTANTS_Default_delimiter</title>
<polygon fill="lightgray" stroke="black" points="1069.88,-762 981.12,-762 981.12,-726 1069.88,-726 1069.88,-762"/>
<text xml:space="preserve" text-anchor="middle" x="1025.5" y="-740.12" font-family="Times New Roman,serif" font-size="10.00">Default_delimiter</text>
</g>
<!-- SIMPLE_TOON_CONSTANTS_Delimiter_comma -->
<g id="node3" class="node">
<title>SIMPLE_TOON_CONSTANTS_Delimiter_comma</title>
<polygon fill="lightgray" stroke="black" points="956.25,-822 866.75,-822 866.75,-786 956.25,-786 956.25,-822"/>
<text xml:space="preserve" text-anchor="middle" x="911.5" y="-800.12" font-family="Times New Roman,serif" font-size="10.00">Delimiter_comma</text>
</g>
<!-- SIMPLE_TOON_CONSTANTS_Delimiter_tab -->
<g id="node4" class="node">
<title>SIMPLE_TOON_CONSTANTS_Delimiter_tab</title>
<polygon fill="lightgray" stroke="black" points="868,-996 795,-996 795,-960 868,-960 868,-996"/>
<text xml:space="preserve" text-anchor="middle" x="831.5" y="-974.12" font-family="Times New Roman,serif" font-size="10.00">Delimiter_tab</text>
</g>
<!-- SIMPLE_TOON_CONSTANTS_Delimiter_pipe -->
<g id="node5" class="node">
<title>SIMPLE_TOON_CONSTANTS_Delimiter_pipe</title>
<polygon fill="lightgray" stroke="black" points="915.62,-762 837.38,-762 837.38,-726 915.62,-726 915.62,-762"/>
<text xml:space="preserve" text-anchor="middle" x="876.5" y="-740.12" font-family="Times New Roman,serif" font-size="10.00">Delimiter_pipe</text>
</g>
<!-- SIMPLE_TOON_CONSTANTS_Newline -->
<g id="node6" class="node">
<title>SIMPLE_TOON_CONSTANTS_Newline</title>
<polygon fill="lightgray" stroke="black" points="1245.5,-1002 1191.5,-1002 1191.5,-966 1245.5,-966 1245.5,-1002"/>
<text xml:space="preserve" text-anchor="middle" x="1218.5" y="-980.13" font-family="Times New Roman,serif" font-size="10.00">Newline</text>
</g>
<!-- SIMPLE_TOON_CONSTANTS_Colon -->
<g id="node7" class="node">
<title>SIMPLE_TOON_CONSTANTS_Colon</title>
<polygon fill="lightgray" stroke="black" points="909.5,-702 855.5,-702 855.5,-666 909.5,-666 909.5,-702"/>
<text xml:space="preserve" text-anchor="middle" x="882.5" y="-680.12" font-family="Times New Roman,serif" font-size="10.00">Colon</text>
</g>
<!-- SIMPLE_TOON_CONSTANTS_Hyphen -->
<g id="node8" class="node">
<title>SIMPLE_TOON_CONSTANTS_Hyphen</title>
<polygon fill="lightgray" stroke="black" points="831.5,-702 777.5,-702 777.5,-666 831.5,-666 831.5,-702"/>
<text xml:space="preserve" text-anchor="middle" x="804.5" y="-680.12" font-family="Times New Roman,serif" font-size="10.00">Hyphen</text>
</g>
<!-- SIMPLE_TOON_CONSTANTS_Open_bracket -->
<g id="node9" class="node">
<title>SIMPLE_TOON_CONSTANTS_Open_bracket</title>
<polygon fill="lightgray" stroke="black" points="1210.38,-1062 1136.62,-1062 1136.62,-1026 1210.38,-1026 1210.38,-1062"/>
<text xml:space="preserve" text-anchor="middle" x="1173.5" y="-1040.12" font-family="Times New Roman,serif" font-size="10.00">Open_bracket</text>
</g>
<!-- SIMPLE_TOON_CONSTANTS_Close_bracket -->
<g id="node10" class="node">
<title>SIMPLE_TOON_CONSTANTS_Close_bracket</title>
<polygon fill="lightgray" stroke="black" points="1055.75,-702 981.25,-702 981.25,-666 1055.75,-666 1055.75,-702"/>
<text xml:space="preserve" text-anchor="middle" x="1018.5" y="-680.12" font-family="Times New Roman,serif" font-size="10.00">Close_bracket</text>
</g>
<!-- SIMPLE_TOON_CONSTANTS_Open_brace -->
<g id="node11" class="node">
<title>SIMPLE_TOON_CONSTANTS_Open_brace</title>
<polygon fill="lightgray" stroke="black" points="1238.25,-702 1172.75,-702 1172.75,-666 1238.25,-666 1238.25,-702"/>
<text xml:space="preserve" text-anchor="middle" x="1205.5" y="-680.12" font-family="Times New Roman,serif" font-size="10.00">Open_brace</text>
</g>
<!-- SIMPLE_TOON_CONSTANTS_Close_brace -->
<g id="node12" class="node">
<title>SIMPLE_TOON_CONSTANTS_Close_brace</title>
<polygon fill="lightgray" stroke="black" points="849.62,-1104 783.37,-1104 783.37,-1068 849.62,-1068 849.62,-1104"/>
<text xml:space="preserve" text-anchor="middle" x="816.5" y="-1082.12" font-family="Times New Roman,serif" font-size="10.00">Close_brace</text>
</g>
<!-- SIMPLE_TOON_CONSTANTS_Quote -->
<g id="node13" class="node">
<title>SIMPLE_TOON_CONSTANTS_Quote</title>
<polygon fill="lightgray" stroke="black" points="843.5,-876 789.5,-876 789.5,-840 843.5,-840 843.5,-876"/>
<text xml:space="preserve" text-anchor="middle" x="816.5" y="-854.12" font-family="Times New Roman,serif" font-size="10.00">Quote</text>
</g>
<!-- SIMPLE_TOON_CONSTANTS_Backslash -->
<g id="node14" class="node">
<title>SIMPLE_TOON_CONSTANTS_Backslash</title>
<polygon fill="lightgray" stroke="black" points="1116.12,-1116 1058.88,-1116 1058.88,-1080 1116.12,-1080 1116.12,-1116"/>
<text xml:space="preserve" text-anchor="middle" x="1087.5" y="-1094.12" font-family="Times New Roman,serif" font-size="10.00">Backslash</text>
</g>
<!-- SIMPLE_TOON_CONSTANTS_Space -->
<g id="node15" class="node">
<title>SIMPLE_TOON_CONSTANTS_Space</title>
<polygon fill="lightgray" stroke="black" points="1035.5,-1116 981.5,-1116 981.5,-1080 1035.5,-1080 1035.5,-1116"/>
<text xml:space="preserve" text-anchor="middle" x="1008.5" y="-1094.12" font-family="Times New Roman,serif" font-size="10.00">Space</text>
</g>
<!-- SIMPLE_TOON_CONSTANTS_Keyword_true -->
<g id="node16" class="node">
<title>SIMPLE_TOON_CONSTANTS_Keyword_true</title>
<polygon fill="lightgray" stroke="black" points="882.12,-936 806.88,-936 806.88,-900 882.12,-900 882.12,-936"/>
<text xml:space="preserve" text-anchor="middle" x="844.5" y="-914.12" font-family="Times New Roman,serif" font-size="10.00">Keyword_true</text>
</g>
<!-- SIMPLE_TOON_CONSTANTS_Keyword_false -->
<g id="node17" class="node">
<title>SIMPLE_TOON_CONSTANTS_Keyword_false</title>
<polygon fill="lightgray" stroke="black" points="1209.62,-822 1131.38,-822 1131.38,-786 1209.62,-786 1209.62,-822"/>
<text xml:space="preserve" text-anchor="middle" x="1170.5" y="-800.12" font-family="Times New Roman,serif" font-size="10.00">Keyword_false</text>
</g>
<!-- SIMPLE_TOON_CONSTANTS_Keyword_null -->
<g id="node18" class="node">
<title>SIMPLE_TOON_CONSTANTS_Keyword_null</title>
<polygon fill="lightgray" stroke="black" points="1249.5,-942 1173.5,-942 1173.5,-906 1249.5,-906 1249.5,-942"/>
<text xml:space="preserve" text-anchor="middle" x="1211.5" y="-920.12" font-family="Times New Roman,serif" font-size="10.00">Keyword_null</text>
</g>
<!-- SIMPLE_TOON_CONSTANTS_Error_type_syntax -->
<g id="node19" class="node">
<title>SIMPLE_TOON_CONSTANTS_Error_type_syntax</title>
<polygon fill="lightgray" stroke="black" points="1168.38,-1002 1076.62,-1002 1076.62,-966 1168.38,-966 1168.38,-1002"/>
<text xml:space="preserve" text-anchor="middle" x="1122.5" y="-980.13" font-family="Times New Roman,serif" font-size="10.00">Error_type_syntax</text>
</g>
<!-- SIMPLE_TOON_CONSTANTS_Error_type_delimiter -->
<g id="node20" class="node">
<title>SIMPLE_TOON_CONSTANTS_Error_type_delimiter</title>
<polygon fill="lightgray" stroke="black" points="992.25,-996 890.75,-996 890.75,-960 992.25,-960 992.25,-996"/>
<text xml:space="preserve" text-anchor="middle" x="941.5" y="-974.12" font-family="Times New Roman,serif" font-size="10.00">Error_type_delimiter</text>
</g>
<!-- SIMPLE_TOON_CONSTANTS_Error_type_count_mismatch -->
<g id="node21" class="node">
<title>SIMPLE_TOON_CONSTANTS_Error_type_count_mismatch</title>
<polygon fill="lightgray" stroke="black" points="1149.62,-942 1017.38,-942 1017.38,-906 1149.62,-906 1149.62,-942"/>
<text xml:space="preserve" text-anchor="middle" x="1083.5" y="-920.12" font-family="Times New Roman,serif" font-size="10.00">Error_type_count_mismatch</text>
</g>
<!-- SIMPLE_TOON_CONSTANTS_Error_type_invalid_escape -->
<g id="node22" class="node">
<title>SIMPLE_TOON_CONSTANTS_Error_type_invalid_escape</title>
<polygon fill="lightgray" stroke="black" points="1107.62,-822 981.38,-822 981.38,-786 1107.62,-786 1107.62,-822"/>
<text xml:space="preserve" text-anchor="middle" x="1044.5" y="-800.12" font-family="Times New Roman,serif" font-size="10.00">Error_type_invalid_escape</text>
</g>
<!-- SIMPLE_TOON_CONSTANTS_Error_type_unterminated_string -->
<g id="node23" class="node">
<title>SIMPLE_TOON_CONSTANTS_Error_type_unterminated_string</title>
<polygon fill="lightgray" stroke="black" points="1050.12,-882 902.88,-882 902.88,-846 1050.12,-846 1050.12,-882"/>
<text xml:space="preserve" text-anchor="middle" x="976.5" y="-860.12" font-family="Times New Roman,serif" font-size="10.00">Error_type_unterminated_string</text>
</g>
<!-- SIMPLE_TOON_CONSTANTS_Error_type_indentation -->
<g id="node24" class="node">
<title>SIMPLE_TOON_CONSTANTS_Error_type_indentation</title>
<polygon fill="lightgray" stroke="black" points="1183.5,-882 1071.5,-882 1071.5,-846 1183.5,-846 1183.5,-882"/>
<text xml:space="preserve" text-anchor="middle" x="1127.5" y="-860.12" font-family="Times New Roman,serif" font-size="10.00">Error_type_indentation</text>
</g>
<!-- SIMPLE_TOON_CONSTANTS_Identifier_pattern -->
<g id="node25" class="node">
<title>SIMPLE_TOON_CONSTANTS_Identifier_pattern</title>
<polygon fill="lightgray" stroke="black" points="1176.12,-762 1088.88,-762 1088.88,-726 1176.12,-726 1176.12,-762"/>
<text xml:space="preserve" text-anchor="middle" x="1132.5" y="-740.12" font-family="Times New Roman,serif" font-size="10.00">Identifier_pattern</text>
</g>
<!-- SIMPLE_TOON_CONSTANTS_Numeric_chars -->
<g id="node26" class="node">
<title>SIMPLE_TOON_CONSTANTS_Numeric_chars</title>
<polygon fill="lightgray" stroke="black" points="950.25,-1056 872.75,-1056 872.75,-1020 950.25,-1020 950.25,-1056"/>
<text xml:space="preserve" text-anchor="middle" x="911.5" y="-1034.12" font-family="Times New Roman,serif" font-size="10.00">Numeric_chars</text>
</g>
<!-- SIMPLE_TOON_CONSTANTS_Valid_escapes -->
<g id="node27" class="node">
<title>SIMPLE_TOON_CONSTANTS_Valid_escapes</title>
<polygon fill="lightgray" stroke="black" points="1150.38,-702 1076.62,-702 1076.62,-666 1150.38,-666 1150.38,-702"/>
<text xml:space="preserve" text-anchor="middle" x="1113.5" y="-680.12" font-family="Times New Roman,serif" font-size="10.00">Valid_escapes</text>
</g>
<!-- SIMPLE_TOON_DECODER_make -->
<g id="node28" class="node">
<title>SIMPLE_TOON_DECODER_make</title>
<polygon fill="khaki" stroke="black" points="706.5,-556 652.5,-556 652.5,-520 706.5,-520 706.5,-556"/>
<text xml:space="preserve" text-anchor="middle" x="679.5" y="-534.13" font-family="Times New Roman,serif" font-size="10.00">make</text>
</g>
<!-- SIMPLE_TOON_DECODER_set_indent -->
<g id="node29" class="node">
<title>SIMPLE_TOON_DECODER_set_indent</title>
<polygon fill="palegreen" stroke="black" points="236.87,-598 178.12,-598 178.12,-562 236.87,-562 236.87,-598"/>
<text xml:space="preserve" text-anchor="middle" x="207.5" y="-576.13" font-family="Times New Roman,serif" font-size="10.00">set_indent</text>
</g>
<!-- SIMPLE_TOON_DECODER_set_delimiter -->
<g id="node30" class="node">
<title>SIMPLE_TOON_DECODER_set_delimiter</title>
<polygon fill="palegreen" stroke="black" points="325.13,-652 255.88,-652 255.88,-616 325.13,-616 325.13,-652"/>
<text xml:space="preserve" text-anchor="middle" x="290.5" y="-630.13" font-family="Times New Roman,serif" font-size="10.00">set_delimiter</text>
</g>
<!-- SIMPLE_TOON_DECODER_set_strict -->
<g id="node31" class="node">
<title>SIMPLE_TOON_DECODER_set_strict</title>
<polygon fill="khaki" stroke="black" points="442.5,-196 388.5,-196 388.5,-160 442.5,-160 442.5,-196"/>
<text xml:space="preserve" text-anchor="middle" x="415.5" y="-174.13" font-family="Times New Roman,serif" font-size="10.00">set_strict</text>
</g>
<!-- SIMPLE_TOON_DECODER_indent -->
<g id="node32" class="node">
<title>SIMPLE_TOON_DECODER_indent</title>
<polygon fill="lightgray" stroke="black" points="580.5,-712 526.5,-712 526.5,-676 580.5,-676 580.5,-712"/>
<text xml:space="preserve" text-anchor="middle" x="553.5" y="-690.12" font-family="Times New Roman,serif" font-size="10.00">indent</text>
</g>
<!-- SIMPLE_TOON_DECODER_delimiter -->
<g id="node33" class="node">
<title>SIMPLE_TOON_DECODER_delimiter</title>
<polygon fill="lightgray" stroke="black" points="706.5,-184 652.5,-184 652.5,-148 706.5,-148 706.5,-184"/>
<text xml:space="preserve" text-anchor="middle" x="679.5" y="-162.13" font-family="Times New Roman,serif" font-size="10.00">delimiter</text>
</g>
<!-- SIMPLE_TOON_DECODER_is_strict -->
<g id="node34" class="node">
<title>SIMPLE_TOON_DECODER_is_strict</title>
<polygon fill="lightgray" stroke="black" points="658.5,-664 604.5,-664 604.5,-628 658.5,-628 658.5,-664"/>
<text xml:space="preserve" text-anchor="middle" x="631.5" y="-642.13" font-family="Times New Roman,serif" font-size="10.00">is_strict</text>
</g>
<!-- SIMPLE_TOON_DECODER_decode -->
<g id="node35" class="node">
<title>SIMPLE_TOON_DECODER_decode</title>
<polygon fill="khaki" stroke="black" points="658.5,-496 604.5,-496 604.5,-460 658.5,-460 658.5,-496"/>
<text xml:space="preserve" text-anchor="middle" x="631.5" y="-474.13" font-family="Times New Roman,serif" font-size="10.00">decode</text>
</g>
<!-- SIMPLE_TOON_DECODER_errors -->
<g id="node36" class="node">
<title>SIMPLE_TOON_DECODER_errors</title>
<polygon fill="lightgray" stroke="black" points="220.5,-352 166.5,-352 166.5,-316 220.5,-316 220.5,-352"/>
<text xml:space="preserve" text-anchor="middle" x="193.5" y="-330.12" font-family="Times New Roman,serif" font-size="10.00">errors</text>
</g>
<!-- SIMPLE_TOON_DECODER_lines -->
<g id="node37" class="node">
<title>SIMPLE_TOON_DECODER_lines</title>
<polygon fill="lightgray" stroke="black" points="202.5,-472 148.5,-472 148.5,-436 202.5,-436 202.5,-472"/>
<text xml:space="preserve" text-anchor="middle" x="175.5" y="-450.13" font-family="Times New Roman,serif" font-size="10.00">lines</text>
</g>
<!-- SIMPLE_TOON_DECODER_current_line -->
<g id="node38" class="node">
<title>SIMPLE_TOON_DECODER_current_line</title>
<polygon fill="lightgray" stroke="black" points="339.25,-244 273.75,-244 273.75,-208 339.25,-208 339.25,-244"/>
<text xml:space="preserve" text-anchor="middle" x="306.5" y="-222.13" font-family="Times New Roman,serif" font-size="10.00">current_line</text>
</g>
<!-- SIMPLE_TOON_DECODER_split_lines -->
<g id="node39" class="node">
<title>SIMPLE_TOON_DECODER_split_lines</title>
<polygon fill="khaki" stroke="black" points="236.87,-658 178.12,-658 178.12,-622 236.87,-622 236.87,-658"/>
<text xml:space="preserve" text-anchor="middle" x="207.5" y="-636.12" font-family="Times New Roman,serif" font-size="10.00">split_lines</text>
</g>
<!-- SIMPLE_TOON_DECODER_parse_document -->
<g id="node40" class="node">
<title>SIMPLE_TOON_DECODER_parse_document</title>
<polygon fill="lightcoral" stroke="black" points="308.88,-472 226.12,-472 226.12,-436 308.88,-436 308.88,-472"/>
<text xml:space="preserve" text-anchor="middle" x="267.5" y="-450.13" font-family="Times New Roman,serif" font-size="10.00">parse_document</text>
</g>
<!-- SIMPLE_TOON_DECODER_parse_object_at_depth -->
<g id="node41" class="node">
<title>SIMPLE_TOON_DECODER_parse_object_at_depth</title>
<polygon fill="lightcoral" stroke="black" points="533,-484 424,-484 424,-448 533,-448 533,-484"/>
<text xml:space="preserve" text-anchor="middle" x="478.5" y="-462.13" font-family="Times New Roman,serif" font-size="10.00">parse_object_at_depth</text>
</g>
<!-- SIMPLE_TOON_DECODER_parse_array_at_depth -->
<g id="node42" class="node">
<title>SIMPLE_TOON_DECODER_parse_array_at_depth</title>
<polygon fill="lightcoral" stroke="black" points="563.38,-376 459.62,-376 459.62,-340 563.38,-340 563.38,-376"/>
<text xml:space="preserve" text-anchor="middle" x="511.5" y="-354.13" font-family="Times New Roman,serif" font-size="10.00">parse_array_at_depth</text>
</g>
<!-- SIMPLE_TOON_DECODER_parse_nested_value -->
<g id="node43" class="node">
<title>SIMPLE_TOON_DECODER_parse_nested_value</title>
<polygon fill="lightcoral" stroke="black" points="400.63,-532 304.38,-532 304.38,-496 400.63,-496 400.63,-532"/>
<text xml:space="preserve" text-anchor="middle" x="352.5" y="-510.13" font-family="Times New Roman,serif" font-size="10.00">parse_nested_value</text>
</g>
<!-- SIMPLE_TOON_DECODER_parse_inline_array -->
<g id="node44" class="node">
<title>SIMPLE_TOON_DECODER_parse_inline_array</title>
<polygon fill="lightcoral" stroke="black" points="635.38,-292 543.62,-292 543.62,-256 635.38,-256 635.38,-292"/>
<text xml:space="preserve" text-anchor="middle" x="589.5" y="-270.13" font-family="Times New Roman,serif" font-size="10.00">parse_inline_array</text>
</g>
<!-- SIMPLE_TOON_DECODER_parse_tabular_rows -->
<g id="node45" class="node">
<title>SIMPLE_TOON_DECODER_parse_tabular_rows</title>
<polygon fill="khaki" stroke="black" points="579.25,-544 483.75,-544 483.75,-508 579.25,-508 579.25,-544"/>
<text xml:space="preserve" text-anchor="middle" x="531.5" y="-522.12" font-family="Times New Roman,serif" font-size="10.00">parse_tabular_rows</text>
</g>
<!-- SIMPLE_TOON_DECODER_parse_inline_primitives -->
<g id="node46" class="node">
<title>SIMPLE_TOON_DECODER_parse_inline_primitives</title>
<polygon fill="lightcoral" stroke="black" points="440.88,-424 328.13,-424 328.13,-388 440.88,-388 440.88,-424"/>
<text xml:space="preserve" text-anchor="middle" x="384.5" y="-402.12" font-family="Times New Roman,serif" font-size="10.00">parse_inline_primitives</text>
</g>
<!-- SIMPLE_TOON_DECODER_parse_list_items -->
<g id="node47" class="node">
<title>SIMPLE_TOON_DECODER_parse_list_items</title>
<polygon fill="lightcoral" stroke="black" points="524.5,-652 442.5,-652 442.5,-616 524.5,-616 524.5,-652"/>
<text xml:space="preserve" text-anchor="middle" x="483.5" y="-630.13" font-family="Times New Roman,serif" font-size="10.00">parse_list_items</text>
</g>
<!-- SIMPLE_TOON_DECODER_parse_list_object -->
<g id="node48" class="node">
<title>SIMPLE_TOON_DECODER_parse_list_object</title>
<polygon fill="lightcoral" stroke="black" points="641.38,-436 555.62,-436 555.62,-400 641.38,-400 641.38,-436"/>
<text xml:space="preserve" text-anchor="middle" x="598.5" y="-414.12" font-family="Times New Roman,serif" font-size="10.00">parse_list_object</text>
</g>
<!-- SIMPLE_TOON_DECODER_parse_primitive -->
<g id="node49" class="node">
<title>SIMPLE_TOON_DECODER_parse_primitive</title>
<polygon fill="lightcoral" stroke="black" points="665.38,-352 585.62,-352 585.62,-316 665.38,-316 665.38,-352"/>
<text xml:space="preserve" text-anchor="middle" x="625.5" y="-330.12" font-family="Times New Roman,serif" font-size="10.00">parse_primitive</text>
</g>
<!-- SIMPLE_TOON_DECODER_line_is_empty -->
<g id="node50" class="node">
<title>SIMPLE_TOON_DECODER_line_is_empty</title>
<polygon fill="khaki" stroke="black" points="420.75,-652 346.25,-652 346.25,-616 420.75,-616 420.75,-652"/>
<text xml:space="preserve" text-anchor="middle" x="383.5" y="-630.13" font-family="Times New Roman,serif" font-size="10.00">line_is_empty</text>
</g>
<!-- SIMPLE_TOON_DECODER_get_indent_depth -->
<g id="node51" class="node">
<title>SIMPLE_TOON_DECODER_get_indent_depth</title>
<polygon fill="khaki" stroke="black" points="632.88,-604 544.12,-604 544.12,-568 632.88,-568 632.88,-604"/>
<text xml:space="preserve" text-anchor="middle" x="588.5" y="-582.12" font-family="Times New Roman,serif" font-size="10.00">get_indent_depth</text>
</g>
<!-- SIMPLE_TOON_DECODER_is_array_header -->
<g id="node52" class="node">
<title>SIMPLE_TOON_DECODER_is_array_header</title>
<polygon fill="khaki" stroke="black" points="468.75,-256 388.25,-256 388.25,-220 468.75,-220 468.75,-256"/>
<text xml:space="preserve" text-anchor="middle" x="428.5" y="-234.13" font-family="Times New Roman,serif" font-size="10.00">is_array_header</text>
</g>
<!-- SIMPLE_TOON_DECODER_is_inline_array -->
<g id="node53" class="node">
<title>SIMPLE_TOON_DECODER_is_inline_array</title>
<polygon fill="khaki" stroke="black" points="279.25,-532 201.75,-532 201.75,-496 279.25,-496 279.25,-532"/>
<text xml:space="preserve" text-anchor="middle" x="240.5" y="-510.13" font-family="Times New Roman,serif" font-size="10.00">is_inline_array</text>
</g>
<!-- SIMPLE_TOON_DECODER_is_primitive_only -->
<g id="node54" class="node">
<title>SIMPLE_TOON_DECODER_is_primitive_only</title>
<polygon fill="lightcoral" stroke="black" points="345.25,-592 255.75,-592 255.75,-556 345.25,-556 345.25,-592"/>
<text xml:space="preserve" text-anchor="middle" x="300.5" y="-570.13" font-family="Times New Roman,serif" font-size="10.00">is_primitive_only</text>
</g>
<!-- SIMPLE_TOON_DECODER_parse_array_count -->
<g id="node55" class="node">
<title>SIMPLE_TOON_DECODER_parse_array_count</title>
<polygon fill="lightcoral" stroke="black" points="461,-592 370,-592 370,-556 461,-556 461,-592"/>
<text xml:space="preserve" text-anchor="middle" x="415.5" y="-570.13" font-family="Times New Roman,serif" font-size="10.00">parse_array_count</text>
</g>
<!-- SIMPLE_TOON_DECODER_parse_array_fields -->
<g id="node56" class="node">
<title>SIMPLE_TOON_DECODER_parse_array_fields</title>
<polygon fill="lightcoral" stroke="black" points="520.62,-316 430.37,-316 430.37,-280 520.62,-280 520.62,-316"/>
<text xml:space="preserve" text-anchor="middle" x="475.5" y="-294.12" font-family="Times New Roman,serif" font-size="10.00">parse_array_fields</text>
</g>
<!-- SIMPLE_TOON_DECODER_split_by_delimiter -->
<g id="node57" class="node">
<title>SIMPLE_TOON_DECODER_split_by_delimiter</title>
<polygon fill="khaki" stroke="black" points="335.38,-304 243.63,-304 243.63,-268 335.38,-268 335.38,-304"/>
<text xml:space="preserve" text-anchor="middle" x="289.5" y="-282.13" font-family="Times New Roman,serif" font-size="10.00">split_by_delimiter</text>
</g>
<!-- SIMPLE_TOON_DECODER_find_colon -->
<g id="node58" class="node">
<title>SIMPLE_TOON_DECODER_find_colon</title>
<polygon fill="khaki" stroke="black" points="551,-232 490,-232 490,-196 551,-196 551,-232"/>
<text xml:space="preserve" text-anchor="middle" x="520.5" y="-210.13" font-family="Times New Roman,serif" font-size="10.00">find_colon</text>
</g>
<!-- SIMPLE_TOON_DECODER_unquote_key -->
<g id="node59" class="node">
<title>SIMPLE_TOON_DECODER_unquote_key</title>
<polygon fill="khaki" stroke="black" points="254.5,-244 184.5,-244 184.5,-208 254.5,-208 254.5,-244"/>
<text xml:space="preserve" text-anchor="middle" x="219.5" y="-222.13" font-family="Times New Roman,serif" font-size="10.00">unquote_key</text>
</g>
<!-- SIMPLE_TOON_DECODER_unescape_string -->
<g id="node60" class="node">
<title>SIMPLE_TOON_DECODER_unescape_string</title>
<polygon fill="khaki" stroke="black" points="284.5,-412 202.5,-412 202.5,-376 284.5,-376 284.5,-412"/>
<text xml:space="preserve" text-anchor="middle" x="243.5" y="-390.13" font-family="Times New Roman,serif" font-size="10.00">unescape_string</text>
</g>
<!-- SIMPLE_TOON_DECODER_is_number -->
<g id="node61" class="node">
<title>SIMPLE_TOON_DECODER_is_number</title>
<polygon fill="khaki" stroke="black" points="632.88,-232 574.12,-232 574.12,-196 632.88,-196 632.88,-232"/>
<text xml:space="preserve" text-anchor="middle" x="603.5" y="-210.13" font-family="Times New Roman,serif" font-size="10.00">is_number</text>
</g>
<!-- SIMPLE_TOON_DECODER_create_empty_object -->
<g id="node62" class="node">
<title>SIMPLE_TOON_DECODER_create_empty_object</title>
<polygon fill="lightcoral" stroke="black" points="405.25,-364 303.75,-364 303.75,-328 405.25,-328 405.25,-364"/>
<text xml:space="preserve" text-anchor="middle" x="354.5" y="-342.12" font-family="Times New Roman,serif" font-size="10.00">create_empty_object</text>
</g>
<!-- SIMPLE_TOON_DECODER_add_error -->
<g id="node63" class="node">
<title>SIMPLE_TOON_DECODER_add_error</title>
<polygon fill="khaki" stroke="black" points="503,-712 448,-712 448,-676 503,-676 503,-712"/>
<text xml:space="preserve" text-anchor="middle" x="475.5" y="-690.12" font-family="Times New Roman,serif" font-size="10.00">add_error</text>
</g>
<!-- SIMPLE_TOON_ENCODER_make -->
<g id="node64" class="node">
<title>SIMPLE_TOON_ENCODER_make</title>
<polygon fill="khaki" stroke="black" points="1125.62,-147 1071.62,-147 1071.62,-111 1125.62,-111 1125.62,-147"/>
<text xml:space="preserve" text-anchor="middle" x="1098.62" y="-125.12" font-family="Times New Roman,serif" font-size="10.00">make</text>
</g>
<!-- SIMPLE_TOON_ENCODER_set_indent -->
<g id="node65" class="node">
<title>SIMPLE_TOON_ENCODER_set_indent</title>
<polygon fill="palegreen" stroke="black" points="836,-567 777.25,-567 777.25,-531 836,-531 836,-567"/>
<text xml:space="preserve" text-anchor="middle" x="806.62" y="-545.13" font-family="Times New Roman,serif" font-size="10.00">set_indent</text>
</g>
<!-- SIMPLE_TOON_ENCODER_set_delimiter -->
<g id="node66" class="node">
<title>SIMPLE_TOON_ENCODER_set_delimiter</title>
<polygon fill="palegreen" stroke="black" points="846.25,-159 777,-159 777,-123 846.25,-123 846.25,-159"/>
<text xml:space="preserve" text-anchor="middle" x="811.62" y="-137.12" font-family="Times New Roman,serif" font-size="10.00">set_delimiter</text>
</g>
<!-- SIMPLE_TOON_ENCODER_indent -->
<g id="node67" class="node">
<title>SIMPLE_TOON_ENCODER_indent</title>
<polygon fill="lightgray" stroke="black" points="831.62,-507 777.62,-507 777.62,-471 831.62,-471 831.62,-507"/>
<text xml:space="preserve" text-anchor="middle" x="804.62" y="-485.12" font-family="Times New Roman,serif" font-size="10.00">indent</text>
</g>
<!-- SIMPLE_TOON_ENCODER_delimiter -->
<g id="node68" class="node">
<title>SIMPLE_TOON_ENCODER_delimiter</title>
<polygon fill="lightgray" stroke="black" points="1245.62,-405 1191.62,-405 1191.62,-369 1245.62,-369 1245.62,-405"/>
<text xml:space="preserve" text-anchor="middle" x="1218.62" y="-383.12" font-family="Times New Roman,serif" font-size="10.00">delimiter</text>
</g>
<!-- SIMPLE_TOON_ENCODER_encode -->
<g id="node69" class="node">
<title>SIMPLE_TOON_ENCODER_encode</title>
<polygon fill="palegreen" stroke="black" points="1203.62,-147 1149.62,-147 1149.62,-111 1203.62,-111 1203.62,-147"/>
<text xml:space="preserve" text-anchor="middle" x="1176.62" y="-125.12" font-family="Times New Roman,serif" font-size="10.00">encode</text>
</g>
<!-- SIMPLE_TOON_ENCODER_is_tabular_eligible -->
<g id="node70" class="node">
<title>SIMPLE_TOON_ENCODER_is_tabular_eligible</title>
<polygon fill="khaki" stroke="black" points="1170.25,-459 1077,-459 1077,-423 1170.25,-423 1170.25,-459"/>
<text xml:space="preserve" text-anchor="middle" x="1123.62" y="-437.13" font-family="Times New Roman,serif" font-size="10.00">is_tabular_eligible</text>
</g>
<!-- SIMPLE_TOON_ENCODER_indent_string -->
<g id="node71" class="node">
<title>SIMPLE_TOON_ENCODER_indent_string</title>
<polygon fill="lightgray" stroke="black" points="1052,-165 981.25,-165 981.25,-129 1052,-129 1052,-165"/>
<text xml:space="preserve" text-anchor="middle" x="1016.62" y="-143.13" font-family="Times New Roman,serif" font-size="10.00">indent_string</text>
</g>
<!-- SIMPLE_TOON_ENCODER_encode_value -->
<g id="node72" class="node">
<title>SIMPLE_TOON_ENCODER_encode_value</title>
<polygon fill="khaki" stroke="black" points="874.12,-321 801.12,-321 801.12,-285 874.12,-285 874.12,-321"/>
<text xml:space="preserve" text-anchor="middle" x="837.62" y="-299.13" font-family="Times New Roman,serif" font-size="10.00">encode_value</text>
</g>
<!-- SIMPLE_TOON_ENCODER_encode_string -->
<g id="node73" class="node">
<title>SIMPLE_TOON_ENCODER_encode_string</title>
<polygon fill="khaki" stroke="black" points="880.5,-441 806.75,-441 806.75,-405 880.5,-405 880.5,-441"/>
<text xml:space="preserve" text-anchor="middle" x="843.62" y="-419.12" font-family="Times New Roman,serif" font-size="10.00">encode_string</text>
</g>
<!-- SIMPLE_TOON_ENCODER_encode_array -->
<g id="node74" class="node">
<title>SIMPLE_TOON_ENCODER_encode_array</title>
<polygon fill="khaki" stroke="black" points="1022,-561 951.25,-561 951.25,-525 1022,-525 1022,-561"/>
<text xml:space="preserve" text-anchor="middle" x="986.62" y="-539.12" font-family="Times New Roman,serif" font-size="10.00">encode_array</text>
</g>
<!-- SIMPLE_TOON_ENCODER_encode_primitive_array -->
<g id="node75" class="node">
<title>SIMPLE_TOON_ENCODER_encode_primitive_array</title>
<polygon fill="khaki" stroke="black" points="1034.38,-339 920.87,-339 920.87,-303 1034.38,-303 1034.38,-339"/>
<text xml:space="preserve" text-anchor="middle" x="977.62" y="-317.13" font-family="Times New Roman,serif" font-size="10.00">encode_primitive_array</text>
</g>
<!-- SIMPLE_TOON_ENCODER_encode_tabular_array -->
<g id="node76" class="node">
<title>SIMPLE_TOON_ENCODER_encode_tabular_array</title>
<polygon fill="khaki" stroke="black" points="1001.87,-279 897.37,-279 897.37,-243 1001.87,-243 1001.87,-279"/>
<text xml:space="preserve" text-anchor="middle" x="949.62" y="-257.12" font-family="Times New Roman,serif" font-size="10.00">encode_tabular_array</text>
</g>
<!-- SIMPLE_TOON_ENCODER_encode_list_array -->
<g id="node77" class="node">
<title>SIMPLE_TOON_ENCODER_encode_list_array</title>
<polygon fill="khaki" stroke="black" points="944,-501 855.25,-501 855.25,-465 944,-465 944,-501"/>
<text xml:space="preserve" text-anchor="middle" x="899.62" y="-479.13" font-family="Times New Roman,serif" font-size="10.00">encode_list_array</text>
</g>
<!-- SIMPLE_TOON_ENCODER_encode_object -->
<g id="node78" class="node">
<title>SIMPLE_TOON_ENCODER_encode_object</title>
<polygon fill="khaki" stroke="black" points="931.62,-561 855.62,-561 855.62,-525 931.62,-525 931.62,-561"/>
<text xml:space="preserve" text-anchor="middle" x="893.62" y="-539.12" font-family="Times New Roman,serif" font-size="10.00">encode_object</text>
</g>
<!-- SIMPLE_TOON_ENCODER_encode_object_inline -->
<g id="node79" class="node">
<title>SIMPLE_TOON_ENCODER_encode_object_inline</title>
<polygon fill="khaki" stroke="black" points="1122.25,-399 1017,-399 1017,-363 1122.25,-363 1122.25,-399"/>
<text xml:space="preserve" text-anchor="middle" x="1069.62" y="-377.12" font-family="Times New Roman,serif" font-size="10.00">encode_object_inline</text>
</g>
<!-- SIMPLE_TOON_ENCODER_encode_key -->
<g id="node80" class="node">
<title>SIMPLE_TOON_ENCODER_encode_key</title>
<polygon fill="khaki" stroke="black" points="932.37,-159 866.87,-159 866.87,-123 932.37,-123 932.37,-159"/>
<text xml:space="preserve" text-anchor="middle" x="899.62" y="-137.12" font-family="Times New Roman,serif" font-size="10.00">encode_key</text>
</g>
<!-- SIMPLE_TOON_ENCODER_append_indent -->
<g id="node81" class="node">
<title>SIMPLE_TOON_ENCODER_append_indent</title>
<polygon fill="khaki" stroke="black" points="1220.37,-345 1142.87,-345 1142.87,-309 1220.37,-309 1220.37,-345"/>
<text xml:space="preserve" text-anchor="middle" x="1181.62" y="-323.12" font-family="Times New Roman,serif" font-size="10.00">append_indent</text>
</g>
<!-- SIMPLE_TOON_ENCODER_is_primitive_array -->
<g id="node82" class="node">
<title>SIMPLE_TOON_ENCODER_is_primitive_array</title>
<polygon fill="khaki" stroke="black" points="1054.12,-501 963.12,-501 963.12,-465 1054.12,-465 1054.12,-501"/>
<text xml:space="preserve" text-anchor="middle" x="1008.62" y="-479.13" font-family="Times New Roman,serif" font-size="10.00">is_primitive_array</text>
</g>
<!-- SIMPLE_TOON_ENCODER_is_tabular_array -->
<g id="node83" class="node">
<title>SIMPLE_TOON_ENCODER_is_tabular_array</title>
<polygon fill="khaki" stroke="black" points="919.62,-219 837.62,-219 837.62,-183 919.62,-183 919.62,-219"/>
<text xml:space="preserve" text-anchor="middle" x="878.62" y="-197.13" font-family="Times New Roman,serif" font-size="10.00">is_tabular_array</text>
</g>
<!-- SIMPLE_TOON_ENCODER_has_primitive_values -->
<g id="node84" class="node">
<title>SIMPLE_TOON_ENCODER_has_primitive_values</title>
<polygon fill="khaki" stroke="black" points="1162.5,-285 1058.75,-285 1058.75,-249 1162.5,-249 1162.5,-285"/>
<text xml:space="preserve" text-anchor="middle" x="1110.62" y="-263.12" font-family="Times New Roman,serif" font-size="10.00">has_primitive_values</text>
</g>
<!-- SIMPLE_TOON_ENCODER_keys_match -->
<g id="node85" class="node">
<title>SIMPLE_TOON_ENCODER_keys_match</title>
<polygon fill="khaki" stroke="black" points="1250,-267 1185.25,-267 1185.25,-231 1250,-231 1250,-267"/>
<text xml:space="preserve" text-anchor="middle" x="1217.62" y="-245.12" font-family="Times New Roman,serif" font-size="10.00">keys_match</text>
</g>
<!-- SIMPLE_TOON_ENCODER_needs_quoting -->
<g id="node86" class="node">
<title>SIMPLE_TOON_ENCODER_needs_quoting</title>
<polygon fill="khaki" stroke="black" points="1214,-519 1137.25,-519 1137.25,-483 1214,-483 1214,-519"/>
<text xml:space="preserve" text-anchor="middle" x="1175.62" y="-497.13" font-family="Times New Roman,serif" font-size="10.00">needs_quoting</text>
</g>
<!-- SIMPLE_TOON_ENCODER_looks_numeric -->
<g id="node87" class="node">
<title>SIMPLE_TOON_ENCODER_looks_numeric</title>
<polygon fill="khaki" stroke="black" points="1214,-207 1137.25,-207 1137.25,-171 1214,-171 1214,-207"/>
<text xml:space="preserve" text-anchor="middle" x="1175.62" y="-185.12" font-family="Times New Roman,serif" font-size="10.00">looks_numeric</text>
</g>
<!-- SIMPLE_TOON_ENCODER_has_special_chars -->
<g id="node88" class="node">
<title>SIMPLE_TOON_ENCODER_has_special_chars</title>
<polygon fill="khaki" stroke="black" points="992.37,-441 902.87,-441 902.87,-405 992.37,-405 992.37,-441"/>
<text xml:space="preserve" text-anchor="middle" x="947.62" y="-419.12" font-family="Times New Roman,serif" font-size="10.00">has_special_chars</text>
</g>
<!-- SIMPLE_TOON_ENCODER_is_valid_identifier -->
<g id="node89" class="node">
<title>SIMPLE_TOON_ENCODER_is_valid_identifier</title>
<polygon fill="khaki" stroke="black" points="1114.5,-225 1022.75,-225 1022.75,-189 1114.5,-189 1114.5,-225"/>
<text xml:space="preserve" text-anchor="middle" x="1068.62" y="-203.12" font-family="Times New Roman,serif" font-size="10.00">is_valid_identifier</text>
</g>
<!-- SIMPLE_TOON_ENCODER_escape_string -->
<g id="node90" class="node">
<title>SIMPLE_TOON_ENCODER_escape_string</title>
<polygon fill="khaki" stroke="black" points="1112.37,-561 1040.87,-561 1040.87,-525 1112.37,-525 1112.37,-561"/>
<text xml:space="preserve" text-anchor="middle" x="1076.62" y="-539.12" font-family="Times New Roman,serif" font-size="10.00">escape_string</text>
</g>
<!-- SIMPLE_TOON_ENCODER_format_number -->
<g id="node91" class="node">
<title>SIMPLE_TOON_ENCODER_format_number</title>
<polygon fill="lightcoral" stroke="black" points="897.75,-381 819.5,-381 819.5,-345 897.75,-345 897.75,-381"/>
<text xml:space="preserve" text-anchor="middle" x="858.62" y="-359.12" font-family="Times New Roman,serif" font-size="10.00">format_number</text>
</g>
<!-- LIB_TESTS_toon -->
<g id="node92" class="node">
<title>LIB_TESTS_toon</title>
<polygon fill="lightgray" stroke="black" points="119,-979.5 65,-979.5 65,-943.5 119,-943.5 119,-979.5"/>
<text xml:space="preserve" text-anchor="middle" x="92" y="-957.62" font-family="Times New Roman,serif" font-size="10.00">toon</text>
</g>
<!-- LIB_TESTS_make -->
<g id="node93" class="node">
<title>LIB_TESTS_make</title>
<polygon fill="lightgray" stroke="black" points="54,-924.5 0,-924.5 0,-888.5 54,-888.5 54,-924.5"/>
<text xml:space="preserve" text-anchor="middle" x="27" y="-902.62" font-family="Times New Roman,serif" font-size="10.00">make</text>
</g>
<!-- TEST_APP_make -->
<g id="node94" class="node">
<title>TEST_APP_make</title>
<polygon fill="lightcoral" stroke="black" points="700,-1015.5 646,-1015.5 646,-979.5 700,-979.5 700,-1015.5"/>
<text xml:space="preserve" text-anchor="middle" x="673" y="-993.62" font-family="Times New Roman,serif" font-size="10.00">make</text>
</g>
<!-- TEST_APP_run_lib_tests -->
<g id="node95" class="node">
<title>TEST_APP_run_lib_tests</title>
<polygon fill="lightcoral" stroke="black" points="584.62,-905.5 515.38,-905.5 515.38,-869.5 584.62,-869.5 584.62,-905.5"/>
<text xml:space="preserve" text-anchor="middle" x="550" y="-883.62" font-family="Times New Roman,serif" font-size="10.00">run_lib_tests</text>
</g>
<!-- TEST_APP_lib_tests -->
<g id="node96" class="node">
<title>TEST_APP_lib_tests</title>
<polygon fill="lightgray" stroke="black" points="645,-960.5 591,-960.5 591,-924.5 645,-924.5 645,-960.5"/>
<text xml:space="preserve" text-anchor="middle" x="618" y="-938.62" font-family="Times New Roman,serif" font-size="10.00">lib_tests</text>
</g>
<!-- TEST_APP_passed -->
<g id="node97" class="node">
<title>TEST_APP_passed</title>
<polygon fill="lightgray" stroke="black" points="570,-965.5 516,-965.5 516,-929.5 570,-929.5 570,-965.5"/>
<text xml:space="preserve" text-anchor="middle" x="543" y="-943.62" font-family="Times New Roman,serif" font-size="10.00">passed</text>
</g>
<!-- TEST_APP_failed -->
<g id="node98" class="node">
<title>TEST_APP_failed</title>
<polygon fill="lightgray" stroke="black" points="660,-875.5 606,-875.5 606,-839.5 660,-839.5 660,-875.5"/>
<text xml:space="preserve" text-anchor="middle" x="633" y="-853.62" font-family="Times New Roman,serif" font-size="10.00">failed</text>
</g>
<!-- TEST_APP_run_test -->
<g id="node99" class="node">
<title>TEST_APP_run_test</title>
<polygon fill="lightcoral" stroke="black" points="535,-850.5 481,-850.5 481,-814.5 535,-814.5 535,-850.5"/>
<text xml:space="preserve" text-anchor="middle" x="508" y="-828.62" font-family="Times New Roman,serif" font-size="10.00">run_test</text>
</g>
<!-- legend_full -->
<g id="node100" class="node">
<title>legend_full</title>
<polygon fill="palegreen" stroke="black" points="395.37,-919.12 281.12,-919.12 281.12,-878.12 395.37,-878.12 395.37,-919.12"/>
<text xml:space="preserve" text-anchor="middle" x="338.25" y="-901.83" font-family="Times New Roman,serif" font-size="14.00">Full Contract</text>
<text xml:space="preserve" text-anchor="middle" x="338.25" y="-885.33" font-family="Times New Roman,serif" font-size="14.00">(require + ensure)</text>
</g>
<!-- legend_partial -->
<g id="node101" class="node">
<title>legend_partial</title>
<polygon fill="khaki" stroke="black" points="405.87,-855.12 288.62,-855.12 288.62,-814.12 405.87,-814.12 405.87,-855.12"/>
<text xml:space="preserve" text-anchor="middle" x="347.25" y="-837.83" font-family="Times New Roman,serif" font-size="14.00">Partial Contract</text>
<text xml:space="preserve" text-anchor="middle" x="347.25" y="-821.33" font-family="Times New Roman,serif" font-size="14.00">(require or ensure)</text>
</g>
<!-- legend_none -->
<g id="node102" class="node">
<title>legend_none</title>
<polygon fill="lightcoral" stroke="black" points="371.62,-977.63 288.88,-977.63 288.88,-941.63 371.62,-941.63 371.62,-977.63"/>
<text xml:space="preserve" text-anchor="middle" x="330.25" y="-954.58" font-family="Times New Roman,serif" font-size="14.00">No Contract</text>
</g>
<!-- legend_attr -->
<g id="node103" class="node">
<title>legend_attr</title>
<polygon fill="lightgray" stroke="black" points="265.62,-991.12 200.87,-991.12 200.87,-950.12 265.62,-950.12 265.62,-991.12"/>
<text xml:space="preserve" text-anchor="middle" x="233.25" y="-973.83" font-family="Times New Roman,serif" font-size="14.00">Attribute</text>
<text xml:space="preserve" text-anchor="middle" x="233.25" y="-957.33" font-family="Times New Roman,serif" font-size="14.00">(n/a)</text>
</g>
<!-- legend_stats -->
<g id="node104" class="node">
<title>legend_stats</title>
<polygon fill="white" stroke="black" points="251.37,-929.12 185.12,-929.12 185.12,-822.12 257.37,-822.12 257.37,-923.12 251.37,-929.12"/>
<polyline fill="none" stroke="black" points="251.37,-929.12 251.37,-923.12"/>
<polyline fill="none" stroke="black" points="257.37,-923.12 251.37,-923.12"/>
<text xml:space="preserve" text-anchor="middle" x="221.25" y="-911.83" font-family="Times New Roman,serif" font-size="14.00">Statistics</text>
<text xml:space="preserve" text-anchor="middle" x="221.25" y="-895.33" font-family="Times New Roman,serif" font-size="14.00">Full: 5</text>
<text xml:space="preserve" text-anchor="middle" x="221.25" y="-878.83" font-family="Times New Roman,serif" font-size="14.00">Partial: 36</text>
<text xml:space="preserve" text-anchor="middle" x="221.25" y="-862.33" font-family="Times New Roman,serif" font-size="14.00">None: 17</text>
<text xml:space="preserve" text-anchor="middle" x="221.25" y="-845.83" font-family="Times New Roman,serif" font-size="14.00">Attr: 41</text>
<text xml:space="preserve" text-anchor="middle" x="221.25" y="-829.33" font-family="Times New Roman,serif" font-size="14.00">Total: 99</text>
</g>
</g>
</svg>
