<?xml version="1.0" encoding="UTF-8" standalone="no"?>
<!DOCTYPE svg PUBLIC "-//W3C//DTD SVG 1.1//EN"
 "http://www.w3.org/Graphics/SVG/1.1/DTD/svg11.dtd">
<!-- Generated by graphviz version 14.1.1 (20251213.1925)
 -->
<!-- Title: Dependencies Pages: 1 -->
<svg width="339pt" height="357pt"
 viewBox="0.00 0.00 339.00 357.00" xmlns="http://www.w3.org/2000/svg" xmlns:xlink="http://www.w3.org/1999/xlink">
<g id="graph0" class="graph" transform="scale(1 1) rotate(0) translate(4 352.5)">
<title>Dependencies</title>
<polygon fill="white" stroke="none" points="-4,4 -4,-352.5 334.5,-352.5 334.5,4 -4,4"/>
<text xml:space="preserve" text-anchor="middle" x="165.25" y="-7.2" font-family="Times New Roman,serif" font-size="14.00">simple_toon &#45; Dependencies</text>
<!-- simple_toon -->
<g id="node1" class="node">
<title>simple_toon</title>
<polygon fill="lightblue" stroke="black" points="83.5,-204.5 0,-204.5 0,-168.5 83.5,-168.5 83.5,-204.5"/>
<text xml:space="preserve" text-anchor="middle" x="41.75" y="-181.45" font-family="Times New Roman,serif" font-size="14.00">simple_toon</text>
</g>
<!-- simple_decimal -->
<g id="node2" class="node">
<title>simple_decimal</title>
<polygon fill="lightblue" stroke="black" points="330.5,-348.5 227.5,-348.5 227.5,-312.5 330.5,-312.5 330.5,-348.5"/>
<text xml:space="preserve" text-anchor="middle" x="279" y="-325.45" font-family="Times New Roman,serif" font-size="14.00">simple_decimal</text>
</g>
<!-- simple_toon&#45;&gt;simple_decimal -->
<g id="edge1" class="edge">
<title>simple_toon&#45;&gt;simple_decimal</title>
<path fill="none" stroke="black" stroke-dasharray="5,2" d="M27.5,-204.74C27.5,-243.49 27.5,-330.5 27.5,-330.5 27.5,-330.5 215.68,-330.5 215.68,-330.5"/>
<polygon fill="black" stroke="black" points="215.68,-334 225.68,-330.5 215.68,-327 215.68,-334"/>
</g>
<!-- simple_json -->
<g id="node3" class="node">
<title>simple_json</title>
<polygon fill="lightblue" stroke="black" points="320,-276.5 238,-276.5 238,-240.5 320,-240.5 320,-276.5"/>
<text xml:space="preserve" text-anchor="middle" x="279" y="-253.45" font-family="Times New Roman,serif" font-size="14.00">simple_json</text>
</g>
<!-- simple_toon&#45;&gt;simple_json -->
<g id="edge2" class="edge">
<title>simple_toon&#45;&gt;simple_json</title>
<path fill="none" stroke="black" stroke-dasharray="5,2" d="M55.5,-204.67C55.5,-226 55.5,-258.5 55.5,-258.5 55.5,-258.5 226.23,-258.5 226.23,-258.5"/>
<polygon fill="black" stroke="black" points="226.23,-262 236.23,-258.5 226.23,-255 226.23,-262"/>
</g>
<!-- simple_testing -->
<g id="node4" class="node">
<title>simple_testing</title>
<polygon fill="lightblue" stroke="black" points="326.75,-204.5 231.25,-204.5 231.25,-168.5 326.75,-168.5 326.75,-204.5"/>
<text xml:space="preserve" text-anchor="middle" x="279" y="-181.45" font-family="Times New Roman,serif" font-size="14.00">simple_testing</text>
</g>
<!-- simple_toon&#45;&gt;simple_testing -->
<g id="edge3" class="edge">
<title>simple_toon&#45;&gt;simple_testing</title>
<path fill="none" stroke="black" stroke-dasharray="5,2" d="M83.89,-186.5C83.89,-186.5 219.62,-186.5 219.62,-186.5"/>
<polygon fill="black" stroke="black" points="219.62,-190 229.62,-186.5 219.62,-183 219.62,-190"/>
</g>
<!-- base -->
<g id="node5" class="node">
<title>base</title>
<polygon fill="lightgray" stroke="black" points="306,-132.5 252,-132.5 252,-96.5 306,-96.5 306,-132.5"/>
<text xml:space="preserve" text-anchor="middle" x="279" y="-109.45" font-family="Times New Roman,serif" font-size="14.00">base</text>
</g>
<!-- simple_toon&#45;&gt;base -->
<g id="edge4" class="edge">
<title>simple_toon&#45;&gt;base</title>
<path fill="none" stroke="black" stroke-dasharray="5,2" d="M55.5,-168.33C55.5,-147 55.5,-114.5 55.5,-114.5 55.5,-114.5 240.08,-114.5 240.08,-114.5"/>
<polygon fill="black" stroke="black" points="240.08,-118 250.08,-114.5 240.08,-111 240.08,-118"/>
</g>
<!-- testing -->
<g id="node6" class="node">
<title>testing</title>
<polygon fill="lightgray" stroke="black" points="306,-60.5 252,-60.5 252,-24.5 306,-24.5 306,-60.5"/>
<text xml:space="preserve" text-anchor="middle" x="279" y="-37.45" font-family="Times New Roman,serif" font-size="14.00">testing</text>
</g>
<!-- simple_toon&#45;&gt;testing -->
<g id="edge5" class="edge">
<title>simple_toon&#45;&gt;testing</title>
<path fill="none" stroke="black" stroke-dasharray="5,2" d="M27.5,-168.26C27.5,-129.51 27.5,-42.5 27.5,-42.5 27.5,-42.5 240.09,-42.5 240.09,-42.5"/>
<polygon fill="black" stroke="black" points="240.09,-46 250.09,-42.5 240.09,-39 240.09,-46"/>
</g>
</g>
</svg>
